# xmcd
#
# Track frame offsets:
#	187
#	28405
#	59677
#	84342
#	110950
#	134302
#
# Disc length: 2061 seconds
#
# Revision: 0
# Processed by: cddbd v1.4PL0 Copyright (c) Steve Scherf et al.
# Submitted via: EasyCDDAExtractor 4.6.9.1
#
DISCID=57080b06
DTITLE=Kym Mazelle - Don't Scandalize My Name
DYEAR=1900
DGENRE=
TTITLE0=Don't Scandalize My Name(Hurley's Deep Remix)
TTITLE1=Don't Scandalize My Name(Club Mix)
TTITLE2=Don't Scandalize My Name(LP Version)
TTITLE3=Don't Scandalize My Name(Hurley's Deep Dub)
TTITLE4=Don't Scandalize My Name(Instrumental Mix)
TTITLE5=Don't Scandalize My Name(Radio Edit)
EXTD=
EXTT0=
EXTT1=
EXTT2=
EXTT3=
EXTT4=
EXTT5=
PLAYORDER=
